<svg width="2009" height="1502" viewBox="0 0 2009 1502" fill="none" xmlns="http://www.w3.org/2000/svg">
<path d="M886.767 122.717C585.967 -131.283 393.434 77.2175 334.767 213.217C296.934 290.717 212.167 448.017 175.767 457.217C139.367 466.418 101.267 409.384 86.767 379.717C52.767 349.551 -11.033 386.018 5.76695 773.218C26.767 1257.22 502.767 436.717 635.267 773.218C741.267 1042.42 591.1 973.384 502.767 905.218C438.6 876.218 345.767 915.818 487.767 1306.22C665.267 1794.22 1378.27 1183.22 1709.27 1340.22C1974.07 1465.82 2016.27 1170.55 2004.27 1007.22C1980.27 816.384 1909.97 400.318 1820.77 262.717C1731.57 125.117 1572.93 172.384 1504.77 213.217C1424.1 288.884 1187.57 376.717 886.767 122.717Z" stroke="#71AEFD" stroke-width="5"/>
</svg>
