<?xml version="1.0" standalone="no"?>
<svg width="800" height="800" title="polygons" version="1.1" viewBox="0 0 800 800" xmlns="http://www.w3.org/2000/svg" class="svg-paper"><!----> <g><desc>pwidth:800;pheight:800;pcolor:;seed:10};sf:i+i*7;rf:10*sin(i/2);xf:400;yf:400;qt:7;sd:3;rn:0;minrd:255;maxrd:50;mina:0;maxa:360;cv:curveCardinalClosed;rd:false</desc> <path stroke="#4C93E5" stroke-width="0.4mm" fill="none" d="M620.84,272.50C584.03,208.75,215.97,208.75,179.16,272.50C142.36,336.25,326.39,655,400,655C473.61,655,657.64,336.25,620.84,272.50"/><path stroke="#4C93E5" stroke-width="0.4mm" fill="none" d="M615.98,249.92C572.65,187.58,194.37,219.30,162.04,288.00C129.71,356.69,346.33,668.43,421.98,662.08C497.64,655.73,659.30,312.27,615.98,249.92"/><path stroke="#4C93E5" stroke-width="0.4mm" fill="none" d="M612.34,231.61C563.73,170.32,176.79,227.56,148.00,300.30C119.22,373.05,362.27,679.53,439.66,668.08C517.05,656.63,660.95,292.91,612.34,231.61"/><path stroke="#4C93E5" stroke-width="0.4mm" fill="none" d="M613.80,220.76C562.06,159.04,165.45,228.79,137.87,304.46C110.29,380.13,369.00,688.73,448.33,674.78C527.65,660.83,665.55,282.48,613.80,220.76"/><path stroke="#4C93E5" stroke-width="0.4mm" fill="none" d="M622.75,219.02C570.50,154.72,161.46,220.19,131.90,297.58C102.33,374.98,363.55,696.49,445.36,683.39C527.17,670.30,674.99,283.33,622.75,219.02"/><path stroke="#4C93E5" stroke-width="0.4mm" fill="none" d="M638.71,226.67C588.67,157.76,165.19,202.15,130.54,279.94C95.88,357.73,346.06,702.27,430.76,693.39C515.45,684.51,688.74,295.58,638.71,226.67"/><path stroke="#4C93E5" stroke-width="0.4mm" fill="none" d="M658.60,242.08C613.01,167.43,175.80,178.20,133.94,255.01C92.09,331.81,320.02,705.06,407.46,702.91C494.90,700.75,704.18,316.73,658.60,242.08"/></g></svg>